<?xml version="1.0" encoding="utf-8"?>
<!-- Generator: Adobe Illustrator 18.0.0, SVG Export Plug-In . SVG Version: 6.00 Build 0)  -->
<!DOCTYPE svg PUBLIC "-//W3C//DTD SVG 1.1//EN" "http://www.w3.org/Graphics/SVG/1.1/DTD/svg11.dtd">
<svg version="1.1" id="Layer_1" xmlns="http://www.w3.org/2000/svg" xmlns:xlink="http://www.w3.org/1999/xlink" x="0px" y="0px"
	 viewBox="0 0 947 1398.9" enable-background="new 0 0 947 1398.9" xml:space="preserve">
<g>
	<g>
		<g>
			<g>
				<path fill="#4957A4" d="M737.5,44.3L209,44.6C93.6,44.6-0.2,138.5-0.1,253.9l0.3,528.5c0.1,115.3,93.9,209.1,209.3,209.1
					l528.5-0.3c115.3-0.1,209.1-93.9,209.1-209.3l-0.3-528.5C946.7,138,852.8,44.3,737.5,44.3z"/>
			</g>
		</g>
		<path opacity="0.8" fill="#F4F4F4" d="M780.3,420c-12.9,0-25.1-7.6-30.4-20.2c-12.2-29.2-28.8-56.4-49.3-80.7
			c-11.7-13.9-10-34.6,3.9-46.3s34.6-10,46.3,3.9c24.9,29.4,45,62.3,59.7,97.8c7,16.8-0.9,36-17.7,43
			C788.8,419.2,784.5,420,780.3,420z M302.1,251.8c-11.3,0-22.4-5.9-28.5-16.4c-9.1-15.7-3.8-35.8,11.9-45
			c33.3-19.4,69.2-33.4,106.8-41.8c17.7-3.9,35.3,7.2,39.3,25c3.9,17.7-7.2,35.3-25,39.3c-30.9,6.9-60.5,18.5-88,34.4
			C313.3,250.3,307.7,251.7,302.1,251.8z M620.9,247c-5.1,0-10.3-1.2-15.1-3.7c-28.2-14.6-58.3-24.8-89.6-30.2
			c-17.9-3.1-29.9-20.1-26.8-38c3.1-17.9,20.1-29.9,38-26.8c37.9,6.6,74.5,18.9,108.6,36.6c16.1,8.4,22.4,28.2,14,44.3
			C644.3,240.6,632.8,247,620.9,247z"/>
		<g>
			<g>
				
					<rect x="636.4" y="539.6" transform="matrix(0.5589 0.8293 -0.8293 0.5589 815.1774 -390.5659)" fill="#1DBCBB" width="276.5" height="62.6"/>
			</g>
			<g>
				
					<rect x="737.1" y="435.8" transform="matrix(0.5588 0.8293 -0.8293 0.5588 815.0205 -383.9889)" fill="#1DBCBB" width="62.6" height="276.5"/>
			</g>
		</g>
		<path opacity="0.7" fill="#F4F4F4" d="M139.5,435.3c-3.7,0-7.5-0.6-11.2-2c-17.1-6.2-25.9-25-19.7-42.1
			c13.1-36.1,31.6-69.9,55-100.5c11-14.4,31.7-17.2,46.1-6.1c14.4,11,17.2,31.7,6.1,46.1c-19.3,25.3-34.6,53.2-45.4,82.9
			C165.6,427,153,435.3,139.5,435.3z"/>
		<path opacity="0.6" fill="#F4F4F4" d="M139.9,670.5c-13.4,0-26-8.3-30.9-21.6c-13.2-36-20.7-73.8-22.4-112.4
			c-0.8-18.1,13.2-33.5,31.4-34.3c18.2-0.8,33.5,13.2,34.3,31.4c1.4,31.8,7.6,63,18.5,92.7c6.2,17.1-2.5,35.9-19.6,42.2
			C147.5,669.8,143.7,670.5,139.9,670.5z"/>
		<path opacity="0.5" fill="#F4F4F4" d="M291.3,850.4c-5.6,0-11.2-1.4-16.4-4.4c-33.3-19.2-63.3-43.3-89.4-71.6
			c-12.3-13.4-11.4-34.2,2-46.5c13.4-12.3,34.2-11.4,46.5,2c21.5,23.4,46.4,43.3,73.8,59.2c15.7,9.1,21.1,29.2,12.1,44.9
			C313.7,844.5,302.7,850.4,291.3,850.4z"/>
		<path opacity="0.4" fill="#F4F4F4" d="M463.1,896.2L463.1,896.2c-16.4,0-32.8-1-49-3.1c-18-2.3-30.7-18.8-28.4-36.8
			c2.3-18,18.8-30.7,36.8-28.4c13.3,1.7,26.9,2.6,40.4,2.6l0,0c18.2,0,36.4-1.6,54.1-4.7c17.9-3.1,34.9,8.8,38.1,26.7
			c3.2,17.9-8.8,34.9-26.7,38.1C507.1,894.3,485.1,896.2,463.1,896.2z"/>
		<path opacity="0.3" fill="#F4F4F4" d="M647.9,842.2c-10.8,0-21.5-5.4-27.8-15.2c-9.8-15.3-5.3-35.6,10-45.4
			c26.7-17.1,50.6-38.1,71.1-62.5c11.7-13.9,32.4-15.7,46.3-4.1c13.9,11.7,15.7,32.4,4.1,46.3c-24.7,29.5-53.7,54.9-86,75.6
			C660.1,840.6,654,842.2,647.9,842.2z"/>
	</g>
	<g>
		<path fill="#FFFFFF" d="M90.4,1327.1c-0.8-2.4-1.2-5.4-1.2-8.8c0-2.9,0.6-5.7,1.7-8.3c3-6.3,7.8-9.5,14.5-9.5
			c6.2,0.2,12.2,3.8,18,10.8c1.8,2.3,3.5,4.4,5.2,6.4c23,28.2,45,42.3,66,42.3c20.8,0,38.5-7.5,53.4-22.4
			c14.5-14.8,21.7-32.3,21.7-52.7c-0.2-17.6-4.8-32.5-13.9-44.8c-7.3-10-20.2-20.3-38.7-31c-19.5-11.3-31.1-18.3-34.8-20.9
			c-8.4-5.9-15.5-12-21.4-18.2c-14.7-15.7-22.1-35.1-22.1-58.2c0-2.9,0.2-6.1,0.5-9.3c2.3-24.9,12.5-45.9,30.8-62.9
			c18.7-17.2,40.7-25.8,66-25.8c10.8,0,21.4,1.7,31.7,5.2c21.5,7.4,38.1,20.1,49.7,38.2c2,4.9,3,8.5,3,10.8c0,2.9-0.8,5.9-2.5,8.8
			c-3.6,6-8.8,9.1-15.5,9.1c-5.9,0-10.1-1.6-12.5-4.7c-16.8-20.2-34.9-30.4-54.2-30.5c-15.2,0-28.7,5.5-40.4,16.5
			c-13.1,12.3-19.6,27.3-19.6,45c0,11,3.4,20.8,10.2,29.5c6.1,7.9,18.1,17.1,35.9,27.8c19.5,11.5,34,21.1,43.6,28.7
			c30.7,24.5,46,53.3,46,86.3c0,7.4-0.7,14.7-2.2,22.1c-5.4,26-19,47.7-40.8,65c-22.1,17.7-46.7,26.5-73.9,26.5
			c-17.6,0-34.7-4.6-51.1-13.7C120.9,1371.6,103.2,1352.5,90.4,1327.1z"/>
		<path fill="#FFFFFF" d="M365.1,1320.2c0-5.6,0.3-11.5,1-17.7c3.4-28,12.3-53,26.6-74.8c17.4-26.7,38.3-40.1,62.7-40.1
			c6.6,0,12.9,0.8,18.9,2.5c21.6,6.3,32.5,21.6,32.5,45.9c0,1.8-0.1,3.7-0.2,5.7c-1.6,22.1-11.5,40.6-29.4,55.5
			c-17.7,14.8-38.2,22.2-61.6,22.2c-4.4,0-8.8-0.4-13-1.2c-0.3,2.4-0.5,5.8-0.5,10.2c0,9.4,1.6,16.7,4.9,21.9
			c4.4,6.7,13.5,10.5,27.2,11.7c6.1,0,12-0.6,17.9-1.9c10.3-2.4,22.5-8.2,36.5-17.3c9.2-6,15.7-9,19.4-9c2.1,0,4.3,0.7,6.6,2
			c5.2,3.1,7.9,7.6,7.9,13.5c0,2-0.4,4.1-1.2,6.4c-4.4,10.6-17.7,20.6-39.8,30.1c-20.5,8.8-38.5,13.2-54.1,13.2
			c-5.9,0-11.4-0.5-16.5-1.5C380.4,1391.2,365.1,1365.5,365.1,1320.2z M444.2,1225.8c-14.9,10.1-26.5,29.2-35,57.5
			c4.1,1,8,1.5,11.8,1.5c13.6,0,25.4-4.2,35.5-12.6c11.3-9.2,16.9-20.2,16.9-33c0-12.7-4-19.2-12-19.3
			C455.6,1220,449.9,1222,444.2,1225.8z"/>
		<path fill="#FFFFFF" d="M526.4,1320.2c0-5.6,0.3-11.5,1-17.7c3.4-28,12.3-53,26.6-74.8c17.4-26.7,38.3-40.1,62.7-40.1
			c6.6,0,12.9,0.8,18.9,2.5c21.6,6.3,32.5,21.6,32.5,45.9c0,1.8-0.1,3.7-0.2,5.7c-1.6,22.1-11.5,40.6-29.4,55.5
			c-17.7,14.8-38.2,22.2-61.6,22.2c-4.4,0-8.8-0.4-13-1.2c-0.3,2.4-0.5,5.8-0.5,10.2c0,9.4,1.6,16.7,4.9,21.9
			c4.4,6.7,13.5,10.5,27.2,11.7c6.1,0,12-0.6,17.9-1.9c10.3-2.4,22.5-8.2,36.5-17.3c9.2-6,15.7-9,19.4-9c2.1,0,4.3,0.7,6.6,2
			c5.2,3.1,7.9,7.6,7.9,13.5c0,2-0.4,4.1-1.2,6.4c-4.4,10.6-17.7,20.6-39.8,30.1c-20.5,8.8-38.5,13.2-54.1,13.2
			c-5.9,0-11.4-0.5-16.5-1.5C541.7,1391.2,526.4,1365.5,526.4,1320.2z M605.5,1225.8c-14.9,10.1-26.5,29.2-35,57.5
			c4.1,1,8,1.5,11.8,1.5c13.6,0,25.4-4.2,35.5-12.6c11.3-9.2,16.9-20.2,16.9-33c0-12.7-4-19.2-12-19.3
			C616.9,1220,611.2,1222,605.5,1225.8z"/>
		<path fill="#FFFFFF" d="M676.6,1374l42.1-327.4c0.8-5.7,1.7-10.5,2.7-14.3c3-9.8,8.9-14.8,18-14.8c1.8,0,3.6,0.2,5.4,0.5
			c7.5,1.8,11.3,8.9,11.3,21.4c0,13.4-6.3,69.2-18.9,167.4c15.7-13,32.5-19.6,50.2-19.8c10.5,0,19.9,3.6,28.3,10.8
			c11.4,10.2,17.1,23.7,17.1,40.6c-0.2,22.5-9.6,43.5-28.4,63c-11.3,11.7-28.8,24.5-52.4,38.7c8.4,11.4,18.5,17.1,30.5,17.3
			c8.2,0,19.9-3.5,35.2-10.6c13-6.1,21.8-9.1,26.4-9.1c2,0,3.9,0.6,5.9,1.7c5.2,3.1,7.9,7.9,7.9,14.5c0,1-0.2,2.1-0.5,3.4
			c-2.3,7.8-10.7,15.9-25.3,24.3c-16.5,9.3-31.2,14-44.1,14c-30.5-0.2-53.9-11.4-70.3-33.7c-0.2,2.9-0.5,5.8-1,8.5
			c-3.1,16-10.4,23.9-21.9,23.9c-2.1,0-4.3-0.6-6.6-1.7C680.4,1389.1,676.6,1382.9,676.6,1374z M794.3,1240.1c0-2.1-0.5-4.1-1.5-5.9
			c-2.5-3.6-6-5.4-10.6-5.4c-2.5,0-5,0.3-7.6,1c-12.3,3.6-23.7,13.6-34.2,29.9c-11.5,17.8-17.2,35.5-17.2,53.1
			C770.4,1290.1,794.1,1265.9,794.3,1240.1z"/>
	</g>
</g>
</svg>
