<?xml version="1.0" encoding="utf-8"?>
<!-- Generator: Adobe Illustrator 18.0.0, SVG Export Plug-In . SVG Version: 6.00 Build 0)  -->
<!DOCTYPE svg PUBLIC "-//W3C//DTD SVG 1.1//EN" "http://www.w3.org/Graphics/SVG/1.1/DTD/svg11.dtd">
<svg version="1.1" id="Layer_1" xmlns="http://www.w3.org/2000/svg" xmlns:xlink="http://www.w3.org/1999/xlink" x="0px" y="0px"
	 viewBox="0 0 349.1 204.6" enable-background="new 0 0 349.1 204.6" xml:space="preserve">
<g>
	<g>
		<rect x="0" y="0" fill="#F18D21" width="349.8" height="204.6"/>
		<line fill="none" stroke="#F4F4F4" stroke-width="3" stroke-miterlimit="10" x1="347.1" y1="52.3" x2="347.1" y2="154.8"/>
	</g>
	<g>
		<g id="Pointer_64_">
			<g>
				<path fill="#F4F4F4" d="M180.5,29.6c-32.1,0-58.2,26.1-58.2,58.2c0,51.2,53.6,83.1,55.9,84.4c0.7,0.4,1.5,0.6,2.3,0.6
					c0.8,0,1.6-0.2,2.3-0.6c2.3-1.3,55.9-33.2,55.9-84.4C238.7,55.7,212.6,29.6,180.5,29.6z M180.5,163.1
					c-9.9-6.5-49.2-34.8-49.2-75.3c0-27.1,22.1-49.2,49.2-49.2c27.1,0,49.2,22.1,49.2,49.2C229.8,128.2,190.5,156.6,180.5,163.1z
					 M180.5,74.4c-7.4,0-13.4,6-13.4,13.4c0,7.4,6,13.4,13.4,13.4c7.4,0,13.4-6,13.4-13.4C194,80.4,187.9,74.4,180.5,74.4z"/>
			</g>
		</g>
	</g>
</g>
</svg>
