<?xml version="1.0" encoding="utf-8"?>
<!-- Generator: Adobe Illustrator 18.0.0, SVG Export Plug-In . SVG Version: 6.00 Build 0)  -->
<!DOCTYPE svg PUBLIC "-//W3C//DTD SVG 1.1//EN" "http://www.w3.org/Graphics/SVG/1.1/DTD/svg11.dtd">
<svg version="1.1" id="Layer_1" xmlns="http://www.w3.org/2000/svg" xmlns:xlink="http://www.w3.org/1999/xlink" x="0px" y="0px"
	 viewBox="0 0 349.1 204.6" enable-background="new 0 0 349.1 204.6" xml:space="preserve">
<g>
	<g>
		<rect x="0.1" y="-0.2" fill="#EF7B22" width="348.9" height="204.6"/>
		<line fill="none" stroke="#F4F4F4" stroke-width="3" stroke-miterlimit="10" x1="347.1" y1="52.1" x2="347.1" y2="154.7"/>
	</g>
	<g>
		<g id="Photo_x5F_Camera_29_">
			<g>
				<path fill="#F4F4F4" d="M225.4,50.1h-23.7l-6.4-12.8c-0.6-1.3-1.9-2.1-3.3-2.1h-29.7c-1.4,0-2.7,0.8-3.3,2.1l-6.4,12.8h-23.7
					c-6.1,0-11.1,5-11.1,11.1v81.7c0,6.1,5,11.1,11.1,11.1h96.5c6.1,0,11.1-5,11.1-11.1V61.2C236.5,55.1,231.5,50.1,225.4,50.1z
					 M125.2,90.9h22.1c-2.2,4.5-3.5,9.5-3.5,14.8c0,5.3,1.3,10.4,3.5,14.8h-22.1V90.9z M229.1,142.9c0,2-1.7,3.7-3.7,3.7h-96.5
					c-2,0-3.7-1.7-3.7-3.7v-14.8h26c0.3,0,0.7-0.1,1-0.2c6.1,6.9,15.1,11.3,25,11.3c10,0,18.9-4.4,25-11.3c0.3,0.1,0.6,0.2,1,0.2h26
					V142.9z M151.1,105.8c0-14.3,11.7-26,26-26c14.3,0,26,11.7,26,26s-11.7,26-26,26C162.8,131.8,151.1,120.1,151.1,105.8z
					 M229.1,120.6H207c2.2-4.5,3.5-9.5,3.5-14.8c0-5.3-1.3-10.4-3.5-14.8h22.1V120.6z M229.1,83.5h-26c-0.3,0-0.7,0.1-1,0.2
					c-6.1-6.9-15.1-11.3-25-11.3c-10,0-18.9,4.4-25,11.3c-0.3-0.1-0.6-0.2-1-0.2h-26V61.2c0-2,1.7-3.7,3.7-3.7h26
					c1.4,0,2.7-0.8,3.3-2.1l6.4-12.8h25.1l6.4,12.8c0.6,1.3,1.9,2.1,3.3,2.1h26c2,0,3.7,1.7,3.7,3.7V83.5z M177.1,94.7
					c6.1,0,11.1,5,11.1,11.1c0,2,1.7,3.7,3.7,3.7c2.1,0,3.7-1.7,3.7-3.7c0-10.2-8.3-18.6-18.6-18.6c-2.1,0-3.7,1.7-3.7,3.7
					C173.4,93,175.1,94.7,177.1,94.7z"/>
			</g>
		</g>
	</g>
</g>
</svg>
