<?xml version="1.0" encoding="utf-8"?>
<!-- Generator: Adobe Illustrator 18.0.0, SVG Export Plug-In . SVG Version: 6.00 Build 0)  -->
<!DOCTYPE svg PUBLIC "-//W3C//DTD SVG 1.1//EN" "http://www.w3.org/Graphics/SVG/1.1/DTD/svg11.dtd">
<svg version="1.1" id="Layer_1" xmlns="http://www.w3.org/2000/svg" xmlns:xlink="http://www.w3.org/1999/xlink" x="0px" y="0px"
	 viewBox="0 0 328.3 204.6" enable-background="new 0 0 328.3 204.6" xml:space="preserve">
<g>
	<g>
		<rect x="1.1" y="0" fill="#F18D21" width="327.2" height="204.6"/>
	</g>
	<g>
		<g>
			<g id="Speech_x5F_Balloon_x5F_Dialogue_22_">
				<g>
					<path fill="#F4F4F4" d="M231.6,65.7h-19V46.6c0-6.8-5.8-12.3-12.9-12.3h-85.6c-7.1,0-12.9,5.5-12.9,12.3v86
						c0,3.6,1.4,6.9,3.9,9.5c2.5,2.5,5.9,3.9,9.5,3.9c3.6,0,7-1.4,9.4-3.9l9.6-9.3c1.6,5.1,6.4,8.9,12.3,8.9h38.1c3,0,5.8,1.2,8,3.3
						l29.4,28.4c2.5,2.5,5.9,3.9,9.5,3.9c3.6,0,6.9-1.4,9.5-4c2.5-2.5,3.9-5.9,3.9-9.5V78C244.5,71.3,238.7,65.7,231.6,65.7z
						 M117.9,135.8c-1.7,1.7-4.6,1.7-6.3,0c-0.9-0.9-1.3-2-1.3-3.2v-86c0-1.9,1.8-3.4,3.9-3.4h85.6c2.2,0,3.9,1.5,3.9,3.4v51.5
						c0,1.9-1.8,3.4-3.9,3.4h-38.1c-5.4,0-10.4,2.1-14.2,5.8L117.9,135.8z M235.5,164.1c0,1.2-0.5,2.3-1.3,3.2
						c-1.7,1.7-4.6,1.8-6.4,0l-29.4-28.4c-3.8-3.8-8.9-5.9-14.2-5.9H146c-2.2,0-3.9-1.5-3.9-3.4v-4.7l11.6-11.2
						c2.1-2.1,4.9-3.3,7.9-3.3h38.1c7.1,0,12.9-5.5,12.9-12.3V74.7h19c2.2,0,3.9,1.5,3.9,3.4V164.1z"/>
				</g>
			</g>
			<g>
				<path fill="#F4F4F4" stroke="#F4F4F4" stroke-miterlimit="10" d="M164.9,53.1c1.3,0.7,2.4,1.6,3.4,2.7c2,2.3,3,5.1,3,8.2
					c0,2.8-1.2,5.8-3.7,9.1c-0.4,0.5-1.2,1.4-2.4,2.7c-2.1,2.3-3.5,3.9-4.1,4.7c0,0,0,0.1-0.1,0.1c-0.3,0.6-0.6,1.7-0.7,3.2
					c-0.1,1.2-0.3,2-0.7,2.3c-0.4,0.4-1,0.6-1.8,0.7c-0.3,0-0.7-0.1-1-0.2c-0.8-0.4-1.2-1-1.3-2v-0.9c0-2.4,0.6-4.4,1.7-6.2
					c0.6-1,2-2.4,4.1-4.5c0.3-0.3,0.5-0.5,0.7-0.8c2.7-3,4.1-5.7,4.1-8.4c0-1.8-0.6-3.4-1.9-4.8c-1.5-1.6-3.2-2.4-5.3-2.4
					c-1.8,0-3.4,0.6-4.9,1.8c-1.6,1.4-2.4,3.1-2.4,5.1c0,1.9,0.7,3.6,2.1,5.1c0.6,0.7,0.9,1.3,0.9,1.8c0,0.3-0.1,0.7-0.2,0.9
					c-0.4,0.8-1.2,1.1-2.3,1.1c-1.7,0-3.1-1.2-4.3-3.6c-0.8-1.8-1.3-3.5-1.3-5.2c0-0.6,0-1.3,0.1-1.9c0.5-2.9,1.9-5.4,4.3-7.4
					c2.3-2,5-3,8-3C161.2,51.7,163.1,52.1,164.9,53.1z M157.1,91.6c0.5,0,0.9,0.1,1.3,0.4c0.8,0.5,1.2,1.3,1.2,2.3
					c0,0.5-0.1,0.9-0.4,1.4c-0.5,0.9-1.2,1.3-2.2,1.3c-0.4,0-0.9-0.1-1.3-0.4c-0.8-0.5-1.2-1.3-1.2-2.3c0-0.5,0.1-1,0.4-1.4
					C155.5,92,156.2,91.6,157.1,91.6z"/>
			</g>
		</g>
	</g>
</g>
</svg>
